# File created by Blade
# Date/Time:  Tue Jan 27 18:55:50 2015
# Frame Rate: 120.000 fps
#------------------------------------------------------
:FULLY-SPECIFIED
:DEGREES
3421
root -2.269333 33.006207 -5.569093 54.028787 -43.640657 -43.972792
Spine 0.897585 20.688950 -3.142828
Head -17.021213 25.456041 1.439781
LeftShoulder -22.250673 22.058617 13.125866
LeftArm -19.972666 -60.934849 -62.652300
LeftForeArm -19.242634 -0.000000 125.294369
LeftHand -14.291596 -0.000000 41.965696
LeftHandThumb1 -26.253704 0.000000 33.147579
RightShoulder 2.545780 17.062896 -5.662139
RightArm 29.768394 -50.589855 77.250973
RightForeArm -28.981060 0.000000 29.331996
RightHand -14.997851 -0.000000 7.683609
RightHandThumb1 -24.326973 -0.000000 -32.862282
LeftUpLeg -29.556161 22.637489 13.890775
LeftLeg 23.145120 -0.000000 -0.000000
LeftFoot -37.435401 28.151188 -31.330074
LeftToeBase 11.452590 -0.000000 -0.000000
RightUpLeg -12.650689 -69.388135 -5.637416
RightLeg 91.684196 -0.000000 -0.000000
RightFoot -19.985403 0.358143 42.361821
RightToeBase 12.346218 -0.000000 -0.000000
3422
root -2.274407 33.011814 -5.580827 54.583011 -44.089893 -44.643855
Spine 0.902210 20.946384 -3.251826
Head -17.160925 25.954067 1.117640
LeftShoulder -22.454309 22.233306 12.987078
LeftArm -20.417987 -60.994463 -62.251141
LeftForeArm -19.678798 -0.000000 125.252446
LeftHand -14.182752 -0.000000 42.028994
LeftHandThumb1 -26.253704 0.000000 33.147579
RightShoulder 2.730716 17.309463 -5.558135
RightArm 30.098272 -50.778831 77.081787
RightForeArm -29.039241 -0.000000 29.705115
RightHand -15.076471 -0.000000 7.519317
RightHandThumb1 -24.326973 -0.000000 -32.862282
LeftUpLeg -29.377958 23.059565 13.975315
LeftLeg 23.154114 -0.000000 -0.000000
LeftFoot -37.541420 28.370918 -31.389919
LeftToeBase 11.361237 -0.000000 -0.000000
RightUpLeg -14.590728 -71.009630 -3.794703
RightLeg 92.668953 -0.000000 -0.000000
RightFoot -19.915564 1.206047 42.947601
RightToeBase 13.311455 -0.000000 -0.000000
3423
root -2.275581 33.018458 -5.597953 55.136029 -44.476095 -45.281253
Spine 0.906914 21.162115 -3.323873
Head -17.295092 26.413197 0.775287
LeftShoulder -22.547597 22.298592 12.935694
LeftArm -21.111102 -61.007937 -61.680883
LeftForeArm -20.061534 0.000000 125.249558
LeftHand -13.982681 -0.000000 42.095821
LeftHandThumb1 -26.253704 0.000000 33.147579
RightShoulder 2.912893 17.541625 -5.462608
RightArm 30.427584 -50.896894 76.934902
RightForeArm -29.106338 -0.000000 30.072264
RightHand -14.984166 -0.000000 7.538926
RightHandThumb1 -24.326973 -0.000000 -32.862282
LeftUpLeg -29.247221 23.409705 14.093129
LeftLeg 23.191529 -0.000000 -0.000000
LeftFoot -37.667258 28.482265 -31.524177
LeftToeBase 11.306302 -0.000000 -0.000000
RightUpLeg -16.775015 -72.529412 -1.614469
RightLeg 93.678654 -0.000000 -0.000000
RightFoot -19.562649 2.107553 43.278940
RightToeBase 13.494958 -0.000000 -0.000000
3424
root -2.274247 33.023052 -5.614740 55.654086 -44.847725 -45.869917
Spine 0.931853 21.357870 -3.398399
Head -17.448929 26.874133 0.413527
LeftShoulder -22.638796 22.345299 12.886549
LeftArm -21.740433 -60.948890 -61.137554
LeftForeArm -20.442525 -0.000000 125.275323
LeftHand -13.823664 0.000000 42.186038
LeftHandThumb1 -26.253704 0.000000 33.147579
RightShoulder 3.057228 17.726286 -5.364878
RightArm 30.877188 -51.021840 76.681141
RightForeArm -29.130734 -0.000000 30.437822
RightHand -14.890982 -0.000000 7.662977
RightHandThumb1 -24.326973 -0.000000 -32.862282
LeftUpLeg -29.140473 23.699976 14.181386
LeftLeg 23.220493 -0.000000 -0.000000
LeftFoot -37.752636 28.743807 -31.566692
LeftToeBase 11.254283 -0.000000 -0.000000
RightUpLeg -19.407802 -73.839978 1.029101
RightLeg 94.723547 -0.000000 -0.000000
RightFoot -19.278280 2.904024 43.797609
RightToeBase 14.166165 -0.000000 -0.000000
3425
root -2.271319 33.023667 -5.629939 56.135911 -45.204792 -46.393979
Spine 0.927437 21.518677 -3.484590
Head -17.559856 27.372304 0.029473
LeftShoulder -22.669723 22.484714 12.859151
LeftArm -22.260905 -60.890396 -60.725989
LeftForeArm -20.729042 -0.000000 125.352482
LeftHand -13.786872 -0.000000 42.215529
LeftHandThumb1 -26.253704 0.000000 33.147579
RightShoulder 3.219820 17.890557 -5.308387
RightArm 31.300859 -51.142997 76.436877
RightForeArm -29.100104 0.000000 30.835827
RightHand -14.842623 0.000000 7.492785
RightHandThumb1 -24.326973 -0.000000 -32.862282
LeftUpLeg -29.078271 23.935482 14.228622
LeftLeg 23.274476 -0.000000 -0.000000
LeftFoot -37.849104 29.062991 -31.561897
LeftToeBase 11.201258 -0.000000 -0.000000
RightUpLeg -22.295433 -75.002987 3.947474
RightLeg 95.796887 -0.000000 -0.000000
RightFoot -18.945619 3.535712 43.914287
RightToeBase 14.129476 -0.000000 -0.000000
3426
root -2.271091 33.020639 -5.642037 56.523746 -45.568109 -46.863462
Spine 0.981243 21.636259 -3.571661
Head -17.660460 27.845445 -0.367821
LeftShoulder -22.688004 22.616599 12.850558
LeftArm -22.732160 -60.765050 -60.311982
LeftForeArm -20.894464 -0.000000 125.445791
LeftHand -13.802866 -0.000000 42.317127
LeftHandThumb1 -26.253704 0.000000 33.147579
RightShoulder 3.401703 18.072628 -5.247526
RightArm 31.671060 -51.262268 76.230237
RightForeArm -29.160265 0.000000 31.249015
RightHand -14.849857 -0.000000 7.265678
RightHandThumb1 -24.326973 -0.000000 -32.862282
LeftUpLeg -28.949656 24.093234 14.270556
LeftLeg 23.317927 -0.000000 -0.000000
LeftFoot -37.942860 29.436034 -31.527313
LeftToeBase 11.027806 -0.000000 -0.000000
RightUpLeg -25.059672 -75.962919 6.762592
RightLeg 96.903535 -0.000000 -0.000000
RightFoot -18.653917 4.095210 43.934700
RightToeBase 14.325540 -0.000000 -0.000000
3427
root -2.288271 33.027160 -5.668882 57.438221 -46.250648 -47.827956
Spine 0.706065 22.258545 -4.021224
Head -17.650277 28.325913 -0.443975
LeftShoulder -22.635491 22.809161 13.052502
LeftArm -23.098338 -60.643023 -59.963363
LeftForeArm -21.030286 -0.000000 125.517555
LeftHand -13.754565 -0.000000 42.236288
LeftHandThumb1 -26.253704 0.000000 33.147579
RightShoulder 3.497470 18.212046 -5.028099
RightArm 32.117180 -51.404320 76.001205
RightForeArm -28.995394 -0.000000 31.589995
RightHand -14.822450 0.000000 7.083127
RightHandThumb1 -24.326973 -0.000000 -32.862282
LeftUpLeg -28.789862 24.904672 14.217757
LeftLeg 23.281390 -0.000000 -0.000000
LeftFoot -37.878350 29.738085 -31.307391
LeftToeBase 10.836622 -0.000000 -0.000000
RightUpLeg -28.740544 -76.252065 10.486314
RightLeg 97.969799 -0.000000 -0.000000
RightFoot -18.593465 4.427532 44.074483
RightToeBase 14.428024 -0.000000 -0.000000
3428
root -2.286577 33.013501 -5.673683 57.600346 -46.518358 -48.085838
Spine 0.868425 22.222553 -4.012459
Head -17.672507 28.771183 -0.905348
LeftShoulder -22.612697 22.846301 13.075306
LeftArm -23.589277 -60.363345 -59.494658
LeftForeArm -21.193063 -0.000000 125.628844
LeftHand -13.747319 -0.000000 42.241938
LeftHandThumb1 -26.253704 0.000000 33.147579
RightShoulder 3.617947 18.425674 -5.074178
RightArm 32.478121 -51.578021 75.835874
RightForeArm -29.094412 -0.000000 31.953595
RightHand -14.930272 -0.000000 7.014255
RightHandThumb1 -24.326973 -0.000000 -32.862282
LeftUpLeg -28.636644 24.739114 14.273859
LeftLeg 23.339900 -0.000000 -0.000000
LeftFoot -38.036313 30.283783 -31.214518
LeftToeBase 10.810837 -0.000000 -0.000000
RightUpLeg -31.216842 -77.021026 13.046876
RightLeg 99.072096 -0.000000 -0.000000
RightFoot -18.445525 4.699727 44.000207
RightToeBase 14.487602 -0.000000 -0.000000
3429
root -2.282809 32.997328 -5.676845 57.718421 -46.786066 -48.314008
Spine 1.061971 22.151571 -3.986262
Head -17.693693 29.221181 -1.394664
LeftShoulder -22.651009 22.940950 13.042579
LeftArm -23.759710 -60.050732 -59.263932
LeftForeArm -21.230130 -0.000000 125.742255
LeftHand -13.648988 -0.000000 42.154231
LeftHandThumb1 -26.253704 0.000000 33.147579
RightShoulder 3.780401 18.562365 -5.163062
RightArm 32.865013 -51.575765 75.761528
RightForeArm -29.082306 0.000000 32.211201
RightHand -14.858426 -0.000000 6.818029
RightHandThumb1 -24.326973 -0.000000 -32.862282
LeftUpLeg -28.480736 24.485346 14.342285
LeftLeg 23.455834 -0.000000 -0.000000
LeftFoot -38.275767 30.776665 -31.248853
LeftToeBase 10.825431 -0.000000 -0.000000
RightUpLeg -33.480959 -77.600319 15.398817
RightLeg 100.160300 -0.000000 -0.000000
RightFoot -18.319815 4.974113 43.912818
RightToeBase 14.405197 -0.000000 -0.000000
3430
root -2.277454 32.980745 -5.680190 57.806098 -47.041590 -48.498170
Spine 1.255500 22.069101 -3.958946
Head -17.687614 29.652669 -1.858064
LeftShoulder -22.601838 22.989907 13.040532
LeftArm -24.010201 -59.689346 -58.922533
LeftForeArm -21.373247 -0.000000 125.891894
LeftHand -13.504003 0.000000 42.137145
LeftHandThumb1 -26.253704 0.000000 33.147579
RightShoulder 3.898568 18.789577 -5.246000
RightArm 33.143268 -51.640510 75.765301
RightForeArm -29.221704 -0.000000 32.445738
RightHand -14.813528 -0.000000 6.756185
RightHandThumb1 -24.326973 -0.000000 -32.862282
LeftUpLeg -28.363713 24.213044 14.384921
LeftLeg 23.604415 -0.000000 -0.000000
LeftFoot -38.490948 31.288643 -31.229910
LeftToeBase 10.810298 -0.000000 -0.000000
RightUpLeg -35.446588 -78.030417 17.480639
RightLeg 101.208250 -0.000000 -0.000000
RightFoot -18.147763 5.392812 43.858532
RightToeBase 14.130379 -0.000000 -0.000000
3431
root -2.274300 32.959191 -5.679065 57.885743 -47.304769 -48.698038
Spine 1.441485 21.991109 -3.918131
Head -17.707288 30.147835 -2.357801
LeftShoulder -22.549848 23.029439 13.032782
LeftArm -24.435844 -59.386100 -58.378486
LeftForeArm -22.015074 -0.000000 125.978076
LeftHand -12.816862 0.000000 41.417780
LeftHandThumb1 -26.253704 0.000000 33.147579
RightShoulder 4.007389 18.948282 -5.354384
RightArm 33.535309 -51.714467 75.669038
RightForeArm -29.159041 -0.000000 32.648448
RightHand -14.763025 -0.000000 6.707548
RightHandThumb1 -24.326973 -0.000000 -32.862282
LeftUpLeg -28.221448 23.882587 14.456515
LeftLeg 23.825570 -0.000000 -0.000000
LeftFoot -38.696531 31.833727 -31.181535
LeftToeBase 10.637255 -0.000000 -0.000000
RightUpLeg -36.806179 -78.246662 18.959375
RightLeg 102.235369 -0.000000 -0.000000
RightFoot -17.925386 5.718528 43.699593
RightToeBase 13.885883 -0.000000 -0.000000
3432
root -2.274102 32.940199 -5.678005 58.049819 -47.659746 -48.990735
Spine 1.596238 22.041577 -3.972726
Head -17.653437 30.549841 -2.686160
LeftShoulder -22.478910 23.072862 13.071496
LeftArm -24.571387 -58.835999 -58.018703
LeftForeArm -21.847712 -0.000000 126.200628
LeftHand -13.035175 -0.000000 41.806731
LeftHandThumb1 -26.253704 0.000000 33.147579
RightShoulder 4.065070 19.117307 -5.432885
RightArm 33.886265 -51.820028 75.597334
RightForeArm -29.314563 0.000000 32.890965
RightHand -14.927990 -0.000000 6.464996
RightHandThumb1 -24.326973 -0.000000 -32.862282
LeftUpLeg -28.070221 23.752444 14.461945
LeftLeg 24.035969 -0.000000 -0.000000
LeftFoot -38.957120 32.232172 -31.280578
LeftToeBase 10.616760 -0.000000 -0.000000
RightUpLeg -37.632821 -78.158775 19.899989
RightLeg 103.190228 -0.000000 -0.000000
RightFoot -17.725223 6.127555 43.672048
RightToeBase 13.860532 -0.000000 -0.000000
